#!OML:ASF X:\für Bonn\!DataBase\2005_08_12_Daniel\c3d\Daniel.ASF
:FULLY-SPECIFIED
:DEGREES
161
root 2.60935 17.6251 17.1528 -5.54638 15.109 -1.55858
lowerback 8.09846 2.69101 4.06646
upperback 0.31129 3.77226 -5.11995
thorax -3.60527 1.78536 -8.10171
lowerneck 3.09255 -6.64527 -3.62933
upperneck 18.0983 -9.65827 5.25819
head 5.38369 -4.63411 1.86158
rclavicle 7.50412e-014 -3.02153e-014
rhumerus 52.0226 -7.04027 -60.5428
rradius 22.3723
rwrist 20.2471
rhand -14.5813 10.254
rfingers 7.12502
rthumb 11.5686 -19.4067
lclavicle 7.50412e-014 -3.02153e-014
lhumerus -44.0557 49.8885 48.7802
lradius 14.909
lwrist -53.2267
lhand -11.1623 -6.10054
lfingers 7.12502
lthumb 14.8641 23.3463
rfemur 10.4024 15.7597 23.4131
rtibia 12.7126
rfoot -24.4014 -26.1074
rtoes -12.0811
lfemur -2.43377 -18.0107 -16.5317
ltibia 29.7472
lfoot -22.1075 2.50815
ltoes -15.6889
162
root 2.61266 17.6212 17.149 -5.57047 14.9608 -1.57042
lowerback 8.11964 2.6563 4.06302
upperback 0.324185 3.72642 -5.10351
thorax -3.6126 1.76247 -8.07863
lowerneck 3.14875 -6.61226 -3.558
upperneck 18.0984 -9.60428 5.18387
head 5.36486 -4.60875 1.83203
rclavicle -4.8373e-014 -2.54444e-014
rhumerus 51.3173 -6.47867 -59.6584
rradius 23.5989
rwrist 18.4926
rhand -15.2332 10.4978
rfingers 7.12502
rthumb 10.9398 -19.1972
lclavicle -4.8373e-014 -2.54444e-014
lhumerus -43.9757 49.8194 48.8759
lradius 14.921
lwrist -53.0516
lhand -11.192 -6.15049
lfingers 7.12502
lthumb 14.8356 23.2984
rfemur 10.3517 15.7912 23.3986
rtibia 12.7898
rfoot -24.3544 -25.998
rtoes -12.1083
lfemur -2.39835 -17.9635 -16.5441
ltibia 29.7716
lfoot -22.1325 2.59203
ltoes -15.6415
163
root 2.61598 17.621 17.1451 -5.5735 14.8145 -1.57071
lowerback 8.12341 2.61507 4.03918
upperback 0.331177 3.66966 -5.08137
thorax -3.61981 1.73429 -8.03556
lowerneck 3.21854 -6.56965 -3.53672
upperneck 18.0925 -9.54222 5.14725
head 5.34566 -4.58086 1.82307
rclavicle 5.44825e-014 -3.02153e-014
rhumerus 50.6099 -5.94494 -58.8914
rradius 24.9077
rwrist 16.7507
rhand -15.8561 10.7406
rfingers 7.12502
rthumb 10.339 -18.9853
lclavicle 5.44825e-014 -3.02153e-014
lhumerus -43.8936 49.7033 49.0186
lradius 14.9657
lwrist -52.7905
lhand -11.2119 -6.20744
lfingers 7.12502
lthumb 14.8163 23.2429
rfemur 10.283 15.83 23.3674
rtibia 12.8561
rfoot -24.2974 -25.8998
rtoes -12.141
lfemur -2.37503 -17.8936 -16.5612
ltibia 29.7882
lfoot -22.1544 2.67052
ltoes -15.6427
164
root 2.62011 17.621 17.1412 -5.58447 14.6735 -1.57108
lowerback 8.13208 2.57309 4.02556
upperback 0.342601 3.6129 -5.06424
thorax -3.62406 1.70619 -8.00396
lowerneck 3.25368 -6.53535 -3.47803
upperneck 18.1254 -9.4874 5.07153
head 5.34119 -4.555 1.79386
rclavicle 3.90301e-014 -1.27222e-014
rhumerus 49.8779 -5.45971 -58.2112
rradius 26.3076
rwrist 15.0469
rhand -16.4602 10.9038
rfingers 7.12502
rthumb 9.75614 -18.8503
lclavicle 3.90301e-014 -1.27222e-014
lhumerus -43.7819 49.5733 49.1763
lradius 15.002
lwrist -52.5188
lhand -11.252 -6.29042
lfingers 7.12502
lthumb 14.7778 23.1627
rfemur 10.234 15.8938 23.3458
rtibia 12.9174
rfoot -24.2719 -25.8242
rtoes -12.2191
lfemur -2.34375 -17.8563 -16.5882
ltibia 29.8082
lfoot -22.1806 2.7608
ltoes -15.5945
165
root 2.62446 17.6206 17.1384 -5.60024 14.5185 -1.58177
lowerback 8.14061 2.53506 4.02113
upperback 0.3473 3.56235 -5.04112
thorax -3.63403 1.68065 -7.97205
lowerneck 3.31838 -6.49236 -3.44272
upperneck 18.1434 -9.42386 5.02119
head 5.32908 -4.52569 1.77793
rclavicle 3.04265e-014 -6.36111e-015
rhumerus 49.0937 -4.98543 -57.566
rradius 27.811
rwrist 13.3071
rhand -17.0603 11.0261
rfingers 7.12502
rthumb 9.17716 -18.7542
lclavicle 3.04265e-014 -6.36111e-015
lhumerus -43.5743 49.2864 49.4987
lradius 15.0643
lwrist -52.0805
lhand -11.3288 -6.32674
lfingers 7.12502
lthumb 14.7037 23.1318
rfemur 10.2061 15.927 23.3228
rtibia 12.9325
rfoot -24.1995 -25.7186
rtoes -12.2524
lfemur -2.29404 -17.8227 -16.6095
ltibia 29.8084
lfoot -22.1892 2.86886
ltoes -15.5346
166
root 2.63022 17.6206 17.1349 -5.60358 14.377 -1.58198
lowerback 8.13319 2.48731 4.01889
upperback 0.357976 3.49865 -5.0243
thorax -3.63038 1.64919 -7.94558
lowerneck 3.36079 -6.44815 -3.39875
upperneck 18.1655 -9.35705 4.95926
head 5.32092 -4.49445 1.75622
rclavicle -7.44495e-014 1.43125e-014
rhumerus 48.3297 -4.577 -57.0903
rradius 29.375
rwrist 11.6747
rhand -17.632 11.1187
rfingers 7.12502
rthumb 8.62548 -18.6851
lclavicle -7.44495e-014 1.43125e-014
lhumerus -43.3299 48.9686 49.8799
lradius 15.151
lwrist -51.592
lhand -11.4006 -6.36524
lfingers 7.12502
lthumb 14.6345 23.0984
rfemur 10.1844 15.9652 23.2861
rtibia 12.9267
rfoot -24.1201 -25.6294
rtoes -12.2832
lfemur -2.25824 -17.8012 -16.6449
ltibia 29.8147
lfoot -22.2122 2.97858
ltoes -15.4865
167
root 2.63582 17.6205 17.1324 -5.62651 14.2258 -1.59518
lowerback 8.14129 2.44573 4.02551
upperback 0.370409 3.44462 -4.9985
thorax -3.63197 1.6223 -7.91642
lowerneck 3.40797 -6.40459 -3.37063
upperneck 18.1886 -9.29239 4.90685
head 5.3136 -4.46476 1.74003
rclavicle 6.26964e-014 -2.22639e-014
rhumerus 47.5293 -4.23003 -56.7146
rradius 30.9974
rwrist 10.2024
rhand -18.1626 11.1874
rfingers 7.12502
rthumb 8.11345 -18.6368
lclavicle 6.26964e-014 -2.22639e-014
lhumerus -43.003 48.5357 50.377
lradius 15.2298
lwrist -51.0008
lhand -11.5073 -6.37998
lfingers 7.12502
lthumb 14.5318 23.0911
rfemur 10.184 16.0324 23.2763
rtibia 12.918
rfoot -24.0497 -25.5608
rtoes -12.2994
lfemur -2.19836 -17.7693 -16.6747
ltibia 29.8212
lfoot -22.2392 3.10092
ltoes -15.4824
168
root 2.6421 17.6202 17.1297 -5.62878 14.0824 -1.59558
lowerback 8.13083 2.3981 4.02411
upperback 0.373567 3.38119 -4.97445
thorax -3.63475 1.59053 -7.88278
lowerneck 3.4723 -6.35362 -3.36027
upperneck 18.2116 -9.21857 4.86095
head 5.30416 -4.43166 1.72973
rclavicle -9.69099e-014 2.54444e-014
rhumerus 46.6888 -3.84893 -56.2933
rradius 32.7171
rwrist 8.71358
rhand -18.6854 11.2082
rfingers 7.12502
rthumb 7.60883 -18.6349
lclavicle -9.69099e-014 2.54444e-014
lhumerus -42.6547 48.0349 50.9253
lradius 15.3124
lwrist -50.3647
lhand -11.5837 -6.36701
lfingers 7.12502
lthumb 14.4582 23.1093
rfemur 10.1645 16.0739 23.2394
rtibia 12.9102
rfoot -23.9754 -25.4693
rtoes -12.3227
lfemur -2.16317 -17.7599 -16.7151
ltibia 29.8273
lfoot -22.2616 3.2258
ltoes -15.4335
169
root 2.64859 17.6202 17.1277 -5.63359 13.9298 -1.59511
lowerback 8.11558 2.35939 4.02317
upperback 0.383831 3.32971 -4.9535
thorax -3.62517 1.56541 -7.85323
lowerneck 3.5119 -6.31561 -3.29687
upperneck 18.2265 -9.15515 4.76747
head 5.29233 -4.4026 1.69484
rclavicle 1.77773e-014 7.95139e-015
rhumerus 45.8532 -3.55001 -56.0151
rradius 34.4379
rwrist 7.46492
rhand -19.1952 11.2251
rfingers 7.12502
rthumb 7.1167 -18.6352
lclavicle 1.77773e-014 7.95139e-015
lhumerus -42.2597 47.5022 51.5146
lradius 15.3927
lwrist -49.7466
lhand -11.6882 -6.31435
lfingers 7.12502
lthumb 14.3575 23.1692
rfemur 10.1474 16.0974 23.1932
rtibia 12.894
rfoot -23.8783 -25.3581
rtoes -12.3614
lfemur -2.11753 -17.7218 -16.7533
ltibia 29.8325
lfoot -22.2907 3.33137
ltoes -15.3843
170
root 2.655 17.62 17.1259 -5.64829 13.7868 -1.60742
lowerback 8.09464 2.31328 4.04217
upperback 0.405535 3.27031 -4.9321
thorax -3.60057 1.53692 -7.83313
lowerneck 3.54809 -6.26849 -3.27272
upperneck 18.257 -9.08555 4.7137
head 5.28924 -4.37049 1.67847
rclavicle 1.68528e-014 -1.74931e-014
rhumerus 44.9852 -3.27555 -55.7811
rradius 36.2195
rwrist 6.38449
rhand -19.6818 11.2827
rfingers 7.12502
rthumb 6.64703 -18.5929
lclavicle 1.68528e-014 -1.74931e-014
lhumerus -41.8471 46.9525 52.1272
lradius 15.4753
lwrist -49.1422
lhand -11.7872 -6.28346
lfingers 7.12502
lthumb 14.2621 23.2068
rfemur 10.144 16.1456 23.1759
rtibia 12.8865
rfoot -23.8116 -25.2762
rtoes -12.3326
lfemur -2.06005 -17.7196 -16.7876
ltibia 29.834
lfoot -22.321 3.46107
ltoes -15.3344
171
root 2.66205 17.6193 17.1246 -5.66375 13.6433 -1.59541
lowerback 8.07997 2.26743 4.02864
upperback 0.427026 3.20852 -4.90523
thorax -3.58218 1.50752 -7.78852
lowerneck 3.58834 -6.21559 -3.26401
upperneck 18.2857 -9.00885 4.66641
head 5.28561 -4.33562 1.66703
rclavicle -2.67426e-014 -2.06736e-014
rhumerus 44.11 -3.00949 -55.5733
rradius 38.0124
rwrist 5.44453
rhand -20.1343 11.3507
rfingers 7.12502
rthumb 6.21019 -18.5382
lclavicle -2.67426e-014 -2.06736e-014
lhumerus -41.512 46.4786 52.6736
lradius 15.5797
lwrist -48.6107
lhand -11.866 -6.25833
lfingers 7.12502
lthumb 14.1861 23.2373
rfemur 10.1467 16.1941 23.13
rtibia 12.8767
rfoot -23.756 -25.1855
rtoes -12.4074
lfemur -1.99895 -17.6979 -16.8488
ltibia 29.8346
lfoot -22.3352 3.57614
ltoes -15.2349
172
root 2.66888 17.619 17.1228 -5.6592 13.4965 -1.59463
lowerback 8.04357 2.22229 4.03007
upperback 0.44186 3.14841 -4.88215
thorax -3.55722 1.47877 -7.75575
lowerneck 3.62384 -6.16857 -3.23377
upperneck 18.3164 -8.93624 4.59181
head 5.28153 -4.3028 1.64326
rclavicle 1.69657e-014 1.27222e-014
rhumerus 43.1997 -2.77519 -55.4166
rradius 39.8433
rwrist 4.66125
rhand -20.5007 11.4029
rfingers 7.12502
rthumb 5.85642 -18.4962
lclavicle 1.69657e-014 1.27222e-014
lhumerus -41.0804 45.856 53.3364
lradius 15.7
lwrist -47.9596
lhand -11.8882 -6.17694
lfingers 7.12502
lthumb 14.1648 23.3202
rfemur 10.1288 16.2349 23.0885
rtibia 12.8586
rfoot -23.685 -25.0927
rtoes -12.4441
lfemur -1.95745 -17.6945 -16.8942
ltibia 29.8349
lfoot -22.3647 3.71205
ltoes -15.1861
